<?xml version="1.0" encoding="utf-8"?>
<!-- Generator: Adobe Illustrator 22.0.1, SVG Export Plug-In . SVG Version: 6.00 Build 0)  -->
<svg version="1.1" id="Capa_1" xmlns="http://www.w3.org/2000/svg" xmlns:xlink="http://www.w3.org/1999/xlink" x="0px" y="0px"
	 viewBox="0 0 97.8 103.5" style="enable-background:new 0 0 97.8 103.5;" xml:space="preserve">
<style type="text/css">
	.st0{fill:#5858C4;}
</style>
<g>
	<path class="st0" d="M26.9,72.3c-1.7,0-3.1,1.3-3.2,3c0,1.7,1.3,3.1,3.1,3.1c1.7,0,3-1.2,3.1-2.9C30,73.8,28.6,72.4,26.9,72.3z"/>
	<path class="st0" d="M70.4,13.9c-0.2,0-0.3-0.1-0.4-0.1L69,17.6c0.3,0.1,0.8,0.2,1.7,0.4c5.5,1.4,10.1,7,10.4,12.7
		c0,0.3,0,0.5,0,0.7h3.9c0,0,0,0,0-0.1C84.7,22.8,78.7,15.7,70.4,13.9z"/>
	<path class="st0" d="M95.7,30.3C95,17.7,86.1,6.9,73.8,3.7c-0.5-0.1-0.9-0.2-1.2-0.3l-1,3.8c0.1,0,0.2,0,0.3,0.1
		c11.1,2.2,19.4,12.1,19.9,22.9c0,0.5,0,0.9,0.1,1.2h3.9C95.8,31.1,95.7,30.8,95.7,30.3z"/>
	<path class="st0" d="M66.6,25c-4.1,0-7.4,3.3-7.6,7.3l-22.2,3l0.5,3.4l22.4-3c0.4,0.9,1,1.8,1.8,2.4l-8.6,18l3.1,1.5l8.5-17.8
		c0.7,0.2,1.4,0.3,2.2,0.3c4.2,0,7.6-3.4,7.6-7.6S70.8,25,66.6,25z M66.6,36.7c-2.3,0-4.2-1.9-4.2-4.2s1.9-4.2,4.2-4.2
		c2.3,0,4.2,1.9,4.2,4.2S68.9,36.7,66.6,36.7z"/>
	<path class="st0" d="M21.9,39.5c-0.9-0.3-1.9,0.3-2.1,1.2c-0.8,2.7-1.2,5.5-1.2,8.4c0,1.9,0.2,3.8,0.5,5.6c0.2,0.8,0.9,1.4,1.7,1.4
		c0.1,0,0.2,0,0.3,0c0.9-0.2,1.5-1.1,1.4-2c-0.3-1.6-0.5-3.3-0.5-5c0-2.5,0.4-5,1-7.4C23.3,40.8,22.8,39.8,21.9,39.5z"/>
	<path class="st0" d="M63,53.9c7.1,10.9,7.5,16.8,6,18.1c-1,0.9-4.3,0.7-10.2-3c-5.7-3.6-12.2-9.3-18.3-16.2s-11-14-13.9-20.1
		c-2.9-6.3-2.8-9.6-1.8-10.5c1.4-1.3,7.2-0.2,17,8l2.2-2.6c-4.7-3.9-16.3-12.5-21.5-7.9c-0.2,0.2-0.4,0.4-0.6,0.7l0,0
		c-7.9,7-12.4,17-12.4,27.5c0,8.2,2.7,16.1,7.7,22.5c-0.3,0.6-0.5,1.2-0.6,1.8L8.8,95.7H5.2c-0.9,0-1.7,0.8-1.7,1.7
		c0,0.9,0.8,1.7,1.7,1.7h44.3c0.9,0,1.7-0.8,1.7-1.7c0-0.9-0.8-1.7-1.7-1.7h-4l-4-11.4c1.6,0.2,3.2,0.3,4.8,0.3
		c9.4,0,18.3-3.5,25.2-10l-0.1-0.1c5.1-4.7-2.1-17.3-5.5-22.5L63,53.9z M12.4,95.7L20,73.2l0-0.2c0.1-0.2,1.3-5.3,7-5.3
		c5.7,0,6.9,5.3,7,5.5l0,0.1l7.9,22.4H12.4z M40.2,80.6l-2.9-8.3c-0.7-2.9-3.6-8.1-10.3-8.1c-3.5,0-6,1.4-7.6,3.2
		c-4.1-5.6-6.3-12.4-6.3-19.5c0-8,2.9-15.6,8-21.6c0.3,2.2,1.2,4.9,2.6,7.9c3,6.4,8.1,13.8,14.4,20.9c6.3,7.1,13,13.1,19,16.8
		c2.9,1.8,5.6,3,7.8,3.6c-5.4,3.7-11.9,5.6-18.5,5.6C44.3,81.2,42.2,81,40.2,80.6z"/>
</g>
</svg>
